<svg width="38" height="38" viewBox="0 0 38 38" fill="none" xmlns="http://www.w3.org/2000/svg">
<g filter="url(#filter0_f_168_238)">
<path fill-rule="evenodd" clip-rule="evenodd" d="M4.62686 4.65419C5.02836 4.25247 5.57283 4.02679 6.14055 4.02679C6.70827 4.02679 7.25275 4.25247 7.65425 4.65419L18.9866 15.9963L30.319 4.65419C30.5165 4.44952 30.7527 4.28628 31.0139 4.17397C31.2752 4.06167 31.5561 4.00255 31.8404 4.00008C32.1247 3.99761 32.4066 4.05183 32.6697 4.15957C32.9328 4.26732 33.1719 4.42643 33.3729 4.62763C33.5739 4.82883 33.7329 5.06808 33.8406 5.33143C33.9482 5.59478 34.0024 5.87695 33.9999 6.16148C33.9974 6.446 33.9384 6.72719 33.8262 6.98863C33.714 7.25006 33.5509 7.48652 33.3464 7.68419L22.014 19.0263L33.3464 30.3685C33.7364 30.7726 33.9522 31.3139 33.9473 31.8758C33.9424 32.4376 33.7173 32.9751 33.3203 33.3724C32.9233 33.7697 32.3863 33.995 31.825 33.9999C31.2636 34.0048 30.7228 33.7888 30.319 33.3985L18.9866 22.0563L7.65425 33.3985C7.25045 33.7888 6.70962 34.0048 6.14826 33.9999C5.58689 33.995 5.0499 33.7697 4.65294 33.3724C4.25598 32.9751 4.03081 32.4376 4.02593 31.8758C4.02105 31.3139 4.23686 30.7726 4.62686 30.3685L15.9592 19.0263L4.62686 7.68419C4.22548 7.28234 4 6.7374 4 6.16919C4 5.60098 4.22548 5.05603 4.62686 4.65419Z" fill="#5BC0DB"/>
</g>
<path fill-rule="evenodd" clip-rule="evenodd" d="M4.62686 4.65419C5.02836 4.25247 5.57283 4.02679 6.14055 4.02679C6.70827 4.02679 7.25275 4.25247 7.65425 4.65419L18.9866 15.9963L30.319 4.65419C30.5165 4.44952 30.7527 4.28628 31.0139 4.17397C31.2752 4.06167 31.5561 4.00255 31.8404 4.00008C32.1247 3.99761 32.4066 4.05183 32.6697 4.15957C32.9328 4.26732 33.1719 4.42643 33.3729 4.62763C33.5739 4.82883 33.7329 5.06808 33.8406 5.33143C33.9482 5.59478 34.0024 5.87695 33.9999 6.16148C33.9974 6.446 33.9384 6.72719 33.8262 6.98863C33.714 7.25006 33.5509 7.48652 33.3464 7.68419L22.014 19.0263L33.3464 30.3685C33.7364 30.7726 33.9522 31.3139 33.9473 31.8758C33.9424 32.4376 33.7173 32.9751 33.3203 33.3724C32.9233 33.7697 32.3863 33.995 31.825 33.9999C31.2636 34.0048 30.7228 33.7888 30.319 33.3985L18.9866 22.0563L7.65425 33.3985C7.25045 33.7888 6.70962 34.0048 6.14826 33.9999C5.58689 33.995 5.0499 33.7697 4.65294 33.3724C4.25598 32.9751 4.03081 32.4376 4.02593 31.8758C4.02105 31.3139 4.23686 30.7726 4.62686 30.3685L15.9592 19.0263L4.62686 7.68419C4.22548 7.28234 4 6.7374 4 6.16919C4 5.60098 4.22548 5.05603 4.62686 4.65419Z" fill="#5BC0DB"/>
<defs>
<filter id="filter0_f_168_238" x="0" y="0" width="38" height="38" filterUnits="userSpaceOnUse" color-interpolation-filters="sRGB">
<feFlood flood-opacity="0" result="BackgroundImageFix"/>
<feBlend mode="normal" in="SourceGraphic" in2="BackgroundImageFix" result="shape"/>
<feGaussianBlur stdDeviation="2" result="effect1_foregroundBlur_168_238"/>
</filter>
</defs>
</svg>
